<svg width="57" height="58" viewBox="0 0 57 58" fill="none" xmlns="http://www.w3.org/2000/svg">
<g filter="url(#filter0_d_326_2)">
<path fill-rule="evenodd" clip-rule="evenodd" d="M14.3335 4.25C10.4214 4.25 7.25 7.42139 7.25 11.3335V39.6675C7.25 43.5796 10.4214 46.751 14.3335 46.751H42.6675C46.5796 46.751 49.751 43.5796 49.751 39.6675V11.3335C49.751 7.42139 46.5796 4.25 42.6675 4.25H14.3335ZM42.6675 8.5001H14.3335C12.7687 8.5001 11.5001 9.76865 11.5001 11.3335V39.6675C11.5001 41.2323 12.7687 42.5009 14.3335 42.5009H42.6675C44.2323 42.5009 45.5009 41.2323 45.5009 39.6675V11.3335C45.5009 9.76865 44.2323 8.5001 42.6675 8.5001Z" fill="#DC3C0C" fill-opacity="0.5" shape-rendering="crispEdges"/>
</g>
<g filter="url(#filter1_d_326_2)">
<path fill-rule="evenodd" clip-rule="evenodd" d="M4.41797 11.3334C4.41797 5.85645 8.85791 1.4165 14.3349 1.4165H42.6688C48.1458 1.4165 52.5857 5.85645 52.5857 11.3334V39.6674C52.5857 45.1443 48.1458 49.5843 42.6688 49.5843H14.3349C8.85791 49.5843 4.41797 45.1443 4.41797 39.6674V11.3334ZM14.3349 7.0833C11.9876 7.0833 10.0848 8.98613 10.0848 11.3334V39.6674C10.0848 42.0146 11.9876 43.9175 14.3349 43.9175H42.6688C45.0161 43.9175 46.9189 42.0146 46.9189 39.6674V11.3334C46.9189 8.98613 45.0161 7.0833 42.6688 7.0833H14.3349Z" fill="#DC3C0C" fill-opacity="0.5" shape-rendering="crispEdges"/>
</g>
<g filter="url(#filter2_d_326_2)">
<path d="M40.5242 16.9824C41.4923 16.0142 41.4923 14.4445 40.5242 13.4764C39.556 12.5082 37.9863 12.5082 37.0182 13.4764L28.5 21.9945L19.9821 13.4766C19.014 12.5085 17.4443 12.5085 16.4761 13.4766C15.508 14.4448 15.508 16.0145 16.4761 16.9826L24.994 25.5005L16.4767 34.0178C15.5086 34.9859 15.5086 36.5556 16.4767 37.5238C17.4449 38.492 19.0146 38.492 19.9828 37.5238L28.5 29.0065L37.0175 37.5241C37.9857 38.4922 39.5554 38.4922 40.5236 37.5241C41.4917 36.5559 41.4917 34.9862 40.5236 34.018L32.006 25.5005L40.5242 16.9824Z" fill="#DC3C0C" fill-opacity="0.5" shape-rendering="crispEdges"/>
</g>
<g filter="url(#filter3_d_326_2)">
<path d="M40.5236 16.9821C41.4917 16.014 41.4917 14.4443 40.5236 13.4761C39.5554 12.508 37.9857 12.508 37.0175 13.4761L28.4997 21.9939L19.9822 13.4764C19.0141 12.5082 17.4444 12.5082 16.4762 13.4764C15.508 14.4445 15.508 16.0142 16.4762 16.9824L24.9937 25.4999L16.4761 34.0175C15.508 34.9857 15.508 36.5554 16.4761 37.5236C17.4443 38.4917 19.014 38.4917 19.9821 37.5236L28.4997 29.0059L37.0176 37.5238C37.9858 38.492 39.5555 38.492 40.5236 37.5238C41.4918 36.5557 41.4918 34.986 40.5236 34.0178L32.0058 25.4999L40.5236 16.9821Z" fill="#DC3C0C" fill-opacity="0.5" shape-rendering="crispEdges"/>
</g>
<defs>
<filter id="filter0_d_326_2" x="3.25" y="4.25" width="50.501" height="50.501" filterUnits="userSpaceOnUse" color-interpolation-filters="sRGB">
<feFlood flood-opacity="0" result="BackgroundImageFix"/>
<feColorMatrix in="SourceAlpha" type="matrix" values="0 0 0 0 0 0 0 0 0 0 0 0 0 0 0 0 0 0 127 0" result="hardAlpha"/>
<feOffset dy="4"/>
<feGaussianBlur stdDeviation="2"/>
<feComposite in2="hardAlpha" operator="out"/>
<feColorMatrix type="matrix" values="0 0 0 0 0 0 0 0 0 0 0 0 0 0 0 0 0 0 0.25 0"/>
<feBlend mode="normal" in2="BackgroundImageFix" result="effect1_dropShadow_326_2"/>
<feBlend mode="normal" in="SourceGraphic" in2="effect1_dropShadow_326_2" result="shape"/>
</filter>
<filter id="filter1_d_326_2" x="0.417969" y="1.4165" width="56.168" height="56.1677" filterUnits="userSpaceOnUse" color-interpolation-filters="sRGB">
<feFlood flood-opacity="0" result="BackgroundImageFix"/>
<feColorMatrix in="SourceAlpha" type="matrix" values="0 0 0 0 0 0 0 0 0 0 0 0 0 0 0 0 0 0 127 0" result="hardAlpha"/>
<feOffset dy="4"/>
<feGaussianBlur stdDeviation="2"/>
<feComposite in2="hardAlpha" operator="out"/>
<feColorMatrix type="matrix" values="0 0 0 0 0 0 0 0 0 0 0 0 0 0 0 0 0 0 0.25 0"/>
<feBlend mode="normal" in2="BackgroundImageFix" result="effect1_dropShadow_326_2"/>
<feBlend mode="normal" in="SourceGraphic" in2="effect1_dropShadow_326_2" result="shape"/>
</filter>
<filter id="filter2_d_326_2" x="11.75" y="12.7502" width="33.5" height="33.5" filterUnits="userSpaceOnUse" color-interpolation-filters="sRGB">
<feFlood flood-opacity="0" result="BackgroundImageFix"/>
<feColorMatrix in="SourceAlpha" type="matrix" values="0 0 0 0 0 0 0 0 0 0 0 0 0 0 0 0 0 0 127 0" result="hardAlpha"/>
<feOffset dy="4"/>
<feGaussianBlur stdDeviation="2"/>
<feComposite in2="hardAlpha" operator="out"/>
<feColorMatrix type="matrix" values="0 0 0 0 0 0 0 0 0 0 0 0 0 0 0 0 0 0 0.25 0"/>
<feBlend mode="normal" in2="BackgroundImageFix" result="effect1_dropShadow_326_2"/>
<feBlend mode="normal" in="SourceGraphic" in2="effect1_dropShadow_326_2" result="shape"/>
</filter>
<filter id="filter3_d_326_2" x="11.75" y="12.75" width="33.5" height="33.5" filterUnits="userSpaceOnUse" color-interpolation-filters="sRGB">
<feFlood flood-opacity="0" result="BackgroundImageFix"/>
<feColorMatrix in="SourceAlpha" type="matrix" values="0 0 0 0 0 0 0 0 0 0 0 0 0 0 0 0 0 0 127 0" result="hardAlpha"/>
<feOffset dy="4"/>
<feGaussianBlur stdDeviation="2"/>
<feComposite in2="hardAlpha" operator="out"/>
<feColorMatrix type="matrix" values="0 0 0 0 0 0 0 0 0 0 0 0 0 0 0 0 0 0 0.25 0"/>
<feBlend mode="normal" in2="BackgroundImageFix" result="effect1_dropShadow_326_2"/>
<feBlend mode="normal" in="SourceGraphic" in2="effect1_dropShadow_326_2" result="shape"/>
</filter>
</defs>
</svg>
